<?xml version="1.0" encoding="utf-8"?>
<!-- Generator: Adobe Illustrator 21.1.0, SVG Export Plug-In . SVG Version: 6.00 Build 0)  -->
<svg version="1.1" id="Laag_1" xmlns="http://www.w3.org/2000/svg" xmlns:xlink="http://www.w3.org/1999/xlink" x="0px" y="0px"
	 viewBox="0 0 128 128" style="enable-background:new 0 0 128 128;" xml:space="preserve">
<style type="text/css">
	.st0{fill:#054C47;}
</style>
<title>ICONS</title>
<path class="st0" d="M106,34.8c-2.1-1.2-4.6-1.7-7-1.6c0.4-3.2,0.6-6.5,0.6-9.7c0-3.6-2.9-6.5-6.5-6.5H35.3c-3.6,0-6.5,2.9-6.5,6.5
	c0,3.3,0.2,6.5,0.6,9.8c-2.6-0.3-5.3,0.3-7.6,1.5c-8.2,4.6-6.9,14.9-3,23c4,8.4,10.8,18.5,20,19.2c0.4,0,0.7,0,1.1,0
	c4.3,0,8.4-2.1,11.7-6.1c2.5,2.5,4.4,5.5,5.6,8.9c0.5,1.5,0.5,6.3-1.5,9.1c-0.7,1-2,2.1-5,2.1v5H46c-3.6,0-6.5,2.9-6.5,6.5
	s2.9,6.5,6.5,6.5h36.4c3.6,0,6.5-2.9,6.5-6.5S86,96,82.4,96h-4.6v-5c-3.1,0-4.3-1.1-5-2.1c-2-2.8-2-7.7-1.5-9.1
	c1.1-3.2,2.9-6.1,5.3-8.5C79.8,75,83.8,77,87.9,77c0.4,0,0.7,0,1.1,0c9.2-0.8,16-10.9,20-19.2C112.9,49.7,114.2,39.4,106,34.8z
	 M39.4,69.7c-4.5-0.4-9.6-5.9-14-15.1c-3.2-6.6-3.2-11.6,0-13.4c1.7-0.9,3.7-0.9,5.5-0.2c3.2,12.5,9.7,19.2,15.5,24.8
	C44.7,67.9,42.3,69.9,39.4,69.7z M64.2,65.7c-2.4-2.9-5-5.7-7.8-8.2C49.8,51.2,43.5,45.2,42.1,30h44.2C84.9,45.2,78.6,51.2,72,57.5
	C69.2,60,66.6,62.8,64.2,65.7L64.2,65.7z M102.4,54.6c-4.5,9.2-9.6,14.7-14,15.1c-2.8,0.2-5.1-1.6-6.7-3.6
	c5.9-5.7,12.7-12.5,15.9-25.4c1.6-0.5,3.3-0.3,4.8,0.4C105.6,43,105.6,48,102.4,54.6L102.4,54.6z"/>
</svg>
