<svg xmlns="http://www.w3.org/2000/svg" viewBox="0 0 128 128"><defs><style>.a{fill:#fff;}</style></defs><title>ICONS</title><path class="a" d="M105.69,36.29a13.08,13.08,0,0,0-6.94-1.59A80.92,80.92,0,0,0,99.31,25a6.5,6.5,0,0,0-6.5-6.5H35.07a6.5,6.5,0,0,0-6.5,6.5,80.86,80.86,0,0,0,.57,9.77,13.16,13.16,0,0,0-7.61,1.55c-8.2,4.58-6.95,14.87-3,23,4,8.35,10.77,18.46,20,19.21q.54,0,1.07,0c4.3,0,8.38-2.13,11.73-6.11a23,23,0,0,1,5.61,8.86c.48,1.46.55,6.33-1.48,9.11-.72,1-1.95,2.13-5,2.13v5H45.77a6.5,6.5,0,0,0,0,13H82.12a6.5,6.5,0,0,0,0-13H77.51v-5c-3.1,0-4.32-1.14-5-2.13-2-2.79-2-7.65-1.48-9.11a22.48,22.48,0,0,1,5.26-8.5c3.29,3.74,7.24,5.74,11.41,5.74.36,0,.71,0,1.07,0,9.23-.75,16-10.86,20-19.21C112.64,51.16,113.9,40.87,105.69,36.29ZM39.09,71.2c-4.45-.36-9.56-5.87-14-15.1-3.19-6.62-3.19-11.64,0-13.43a6.55,6.55,0,0,1,5.48-.17C33.77,55,40.25,61.73,46,67.29,44.42,69.36,42,71.44,39.09,71.2Zm24.85-4A70.87,70.87,0,0,0,56.17,59c-6.64-6.32-13-12.32-14.33-27.52H86C84.67,46.67,78.35,52.68,71.72,59A70.87,70.87,0,0,0,63.94,67.24Zm38.2-11.14c-4.46,9.23-9.56,14.74-14,15.1-2.78.22-5.06-1.61-6.67-3.55C87.4,62,94.14,55.14,97.37,42.26a6.42,6.42,0,0,1,4.76.41C105.33,44.46,105.34,49.48,102.15,56.1Z"/></svg>