<?xml version="1.0" encoding="utf-8"?>
<!-- Generator: Adobe Illustrator 21.1.0, SVG Export Plug-In . SVG Version: 6.00 Build 0)  -->
<svg version="1.1" id="Laag_1" xmlns="http://www.w3.org/2000/svg" xmlns:xlink="http://www.w3.org/1999/xlink" x="0px" y="0px"
	 viewBox="0 0 128 128" style="enable-background:new 0 0 128 128;" xml:space="preserve">
<style type="text/css">
	.st0{fill:#054C47;}
</style>
<title>ICONS</title>
<rect x="60" y="42.5" class="st0" width="7.5" height="15.3"/>
<path class="st0" d="M113.6,56.5L68.4,12.8c-2.7-2.5-6.8-2.5-9.5,0l-45,43.7c-2.8,2.6-3,7.1-0.3,9.9c1.3,1.4,3.2,2.2,5.1,2.2h9.5
	v38.5c0,3.9,3.1,7,7,7h57.2c3.9,0,7-3.1,7-7V68.6h9.5c3.9,0,7-3.2,7-7C115.9,59.6,115,57.8,113.6,56.5L113.6,56.5z M85.2,58
	l0.2,42.1H67.5V72.2H60v27.9H42.1V58h-9.4l30.9-30.6l32,30.6L85.2,58z"/>
</svg>
