<svg xmlns="http://www.w3.org/2000/svg" viewBox="0 0 128 128"><defs><style>.a{fill:#fff;}</style></defs><title>ICONS</title><path class="a" d="M106.42,63.21H92V22.63a6.88,6.88,0,0,0-6.88-6.88H43.76a6.88,6.88,0,0,0-6.88,6.88v22.8H21.58a6.88,6.88,0,0,0-6.88,6.88v53a6.88,6.88,0,0,0,6.88,6.88h84.83a6.88,6.88,0,0,0,6.88-6.88V70.09A6.88,6.88,0,0,0,106.42,63.21ZM50.64,29.52H78.27V70.09a6.9,6.9,0,0,0,.12,1.23V98.48H50.45V53.92a6.88,6.88,0,0,0,.2-1.6ZM28.47,59.2H42.7V98.48H28.47ZM99.53,98.48H86.13V77H99.53Z"/></svg>