<?xml version="1.0" encoding="utf-8"?>
<!-- Generator: Adobe Illustrator 21.1.0, SVG Export Plug-In . SVG Version: 6.00 Build 0)  -->
<svg version="1.1" id="Laag_1" xmlns="http://www.w3.org/2000/svg" xmlns:xlink="http://www.w3.org/1999/xlink" x="0px" y="0px"
	 viewBox="0 0 128 128" style="enable-background:new 0 0 128 128;" xml:space="preserve">
<style type="text/css">
	.st0{fill:#054C47;}
</style>
<title>ICONS</title>
<path class="st0" d="M106.9,63.2H92.5V22.6c0-3.8-3.1-6.9-6.9-6.9H44.2c-3.8,0-6.9,3.1-6.9,6.9l0,0v22.8H22c-3.8,0-6.9,3.1-6.9,6.9
	l0,0v53c0,3.8,3,6.9,6.8,6.9c0,0,0,0,0.1,0h84.8c3.8,0,6.9-3.1,6.9-6.9V70.1C113.7,66.3,110.6,63.2,106.9,63.2z M51.1,29.5h27.6
	v40.6c0,0.4,0,0.8,0.1,1.2v27.2H50.9V53.9c0.1-0.5,0.2-1.1,0.2-1.6V29.5z M28.9,59.2h14.2v39.3H28.9V59.2z M100,98.5H86.6V77H100
	V98.5z"/>
</svg>
